<svg xmlns="http://www.w3.org/2000/svg" viewBox="0 0 300 300" enable-background="new 0 0 300 300"><path fill="#2E2E2C" d="M285.1 79.6c-2.4-4.5-4.6-1.3-6.9 0l.2.2v.1c-.1-.1-.1-.2-.2-.2-3.4-.2-5.5 1.4-6.8 4.5-1.4 1.4-3.2 2.7-4.4 4.4-.9 1.3.5 1.3 1.3 1.4-.5 1.1-1.6 1.9-1.3 3.2-1.5 0-2.2.9-2.2 2.4-2.6 3.4-4.2 7.2-5.7 11.2-5.1 2.7-6.8 7.1-6.6 12.5 0 .4-.1.7-.2.9-5.7 1.5-4.6 6-4.4 10.1-2.1 1.2-4.5 2.1-5.5 4.5-1.9 1.6-4.4 2.6-4.5 5.7-3.9 4-4.2 8.5-2.2 13.4.4 1.2.7 2.2 1.2 3.4-3.2 2.8-6 2.9-9.3-.4-1.1-1.1-1.2-4.5-4.1-3.1-5.7-4.6-12.2-7.5-19-10.1-.5-.2-.8-.6-1.3-.8-.9-2-2.8-1.2-4.5-1.4-3.4-.2-6.5-.4-7.9-4.7-.6-2-4.1-4.4-5.9-2.5-3.5 3.9-7.4 4.6-12 3.7h-1.1c-1.8-5.7-6.8-4.8-11.1-5.4-1.9-.2-4.2.5-4.8 2.1-1.3 3.7-4.2 3.2-6.9 4.1-6.2 2.2-11.9-.4-17.7-1.9-2.7-.6-5.4-1.1-1.9-4.4 2-1.9 1.2-3.9-.4-5.7 1.4-3.4-1.8-2.7-3.1-3.5.4-.7.7-1.4 1.1-2h.5l.5-.1c1.2.6 2.5 1.9 3.9.6.9-.9.6-2-.4-2.8.1-1.6-.2-3.2-2.2-3.7 2-6.2-2.2-10.6-4.6-15.4-.7-2.4-1.3-4.6-2-6.9.7-1.4 2.1-2.5 1.8-4.2.1-.4.1-.7 0-1.1 0-3.4.1-6.8.1-10.2-.5-1.3 0-3.2-2.1-3.3 2.1-8.1 1.3-10.1-4.4-11.2-.1-.4-.1-.7 0-.9.7-.5 1.4-.8 2.1-1.3 3.9-4.9 2.2-10.4 1.2-15.7 0-5.4-.7-10.8-3.3-15.8 0-.9-.4-1.8-1.2-2.2-.4-2.1-1.6-3.5-3.4-4.5-2-3.4-4.7-4.2-8.2-2.4-.4-.2-.6-.1-.8.2-2.4-.5-4.4 0-5.7 2.1-1.6.5-2.4 1.8-2.2 3.4-3.1 2.8-2.6 6.9-3.3 10.4-1.3 6.1-4.9 12.4-1.2 18.8.1 4.5 4.1 6.6 5.9 10.1-.2.2-.4.6-.5.9-1.8 1.1-2.1 2.8-2.5 4.6-1.3 6.4.7 12.1 2.6 18 1.6 2.4-.9 5.9 2.2 7.8 0 .4 0 .8.1 1.2.5 4.8 3.8 5.7 7.7 5.5-1.1 1.6-3.7 0-4.5 2.1-.7.1-1.1.5-.9 1.2-1.2 1.4-1.6 2.9-.2 4.6-.1.4-.1.7.2 1.1.1 4.6.1 9.2 2 13.5v.9c-.7.1-.9.5-.6 1.2-.6 2.4.9 4.4.9 6.6-1.2 3.4-.2 6.5 1.9 9.2.5.7.9 1.5 1.4 2.2-2.6 2.2-5.2 4.6-1.3 7.9 0 .4 0 .7.1 1.1-2.2 1.8.6 3.8-.1 5.7.5 5.4.8 10.8 3.5 15.7.4.4.6.7.9 1.1 1.4 1.5-4.7-.2-3.3 1.3-2 2.7-5.4 5.1-2.2 9.1l1.1 2.1c-2.5 6.1-9.5.1-7.9 2.1-3.4 1.3-2.8 6.2.2 10.5-.6 1.1-1.6 2.2-1.3 3.2h-.1c-.4.7-.7 1.3-1.2 2-.9-.2-2.4-1.1-2.8-.6-1.2.7-.1 1.8.4 2.7.6 1.2 1.2 2.2 2.5 2.5 1.2.5 2.2 1.1 3.4 1.5 0 1.4 0 2.7-.1 4.1-.4.1-.6.1-.9.1-.9-1.1-1.8-2.4-3.4-2.2-.8-1.3-2-1.1-3.2-.9-4.2 1.2-2.6-.6-5.8-1.2-2.9-.8-.9 4.2-2.2 5.5-3.2-.8-5.2 1.1-6.8 3.3-1.9-3.7 5.7-3.5 2.4-4.5.5-1.4 1.6-2.9-.9-3.5-.8-.6-1.6-1.1-2.5-1.6 6.9-4-2.1-1.2-1.2-2.7 2.1-5.4-.8-7.7-5.5-8.8v-2.4c.5.2.9.7 1.5.7 1.6.1 3.7 2.4 4.8.2 1.3-2.2.1-4.4-2.5-5.2-2-.6-2.5-2.6-4-3.7l-2.4-2.4c-.4-.4-.6-.7-.9-1.1-.1-.4-.1-.7-.1-1.1-.4-2.7-2.8-3.2-4.5-4.5-1.2-.6-1.4-2.7-3.3-2.2l-1.2-1.2c-2.6-3.8-4.4-2.1-5.8.9-1.2 0-2.6.6-3.3-.9 1.9-1.6.6-2-.9-2.4-.1-.4-.1-.7-.2-.9.2-.2.2-.6.1-.9h2c4.6 5.3 3.5-2.2 7.1-1.8-2.8-1.4-4.2-2.2-5.7-2.9-.5-.7-.9-1.5-1.3-2.2l-1.1-2.1c-1.3-6-6.8-6.7-11.1-9.2-1.1-.8-2.1-1.5-3.3-2.4-3.4-2.8-7.7-1.5-11.4-2-2.6.7-5.7-.2-8 2-4.5.8-4.5 4.8-5.5 8-1.2.7-1.2 1.4-.1 2.2 0 .7.1 1.5.1 2.2.4 2.2-.9 4.8 1.1 6.8 2.8 1.6 5.3 4.2 9 3.2.4.2.8.6 1.2.8.1.1.1.2.2.4-.1 0-.1 0-.2.1v-.3c-2.7-.2-2.9 1.8-3.4 3.7 0 1.1.2 1.9 1.2 2.4l2.2 2.2c.7.8 1.4 1.5 2.1 2.4 1.1 1.3 1.2 3.7 3.8 3.1.6.1 1.1.2 1.6.4.2 2.4 2.4 2.4 3.9 3.2 1.8 2.4 3.3 4.9 6.4 5.9.7.4 1.5.6 2.2.9.5 2.7 2.9 3.2 4.7 4.4 3.4 1.6 5.9 4.8 9.8 5.8-.1 1.4.7 2.4 1.6 3.3.9.8 2 1.5 2.9 2.4 1.5 2.5 4 3.2 6.7 3.4.1 4.6 3.9 1.8 5.7 2.8 0-.1 0-.2-.1-.4 0 .1.1.2.1.4l-.2.4c-.7 1.3-.8 2.5.4 3.5-1.2.8-1.5 2-1.3 3.4-1.4 3.9.1 7.1 2.2 10.1.6.7 1.1 1.6 2.2 1.1.4.4.7.8 1.1 1.2.2 3.7 2.4 6.4 4.5 9 .1 3.2 2.1 5.1 4.5 6.8.2 4.8 4.9 6.6 7.7 8.5 4.5 3.2 7.1 9.4 13.5 9.5 1.5 6.5 6.6 8.7 12.4 10 2.2 1.6 4.1 4 7.4 3.1 3.3-.5 7.1 0 8.7-4.1 2 3.9 4.9.8 7.5 1.1 1.6 3.7 4.2 2.7 6.9 1.4 2.2.1 3.9-1.1 5.3-2.5-.2 1.8.4 2.7 2.4 2.2.7.8 1.5 1.5 2.4.1 2.1.8 4.2.7 6.4.7.5.1.9.1 1.3.2 1.4.5 2.8.8 4.1 1.3.9 2.1 3.1 2.2 4.8 2.9 2.4.2 4.5 2.9 6.9.4 1.6 1.2 3.5 1.1 5.4 1.1 1.9.9 3.8 2 5.9.5.6.4 1.2.6 1.8.9 5.9 3.3 11 2.1 14.7-3.5 6-2.5 6.2-8.8 9.1-13.4 4.8-4.1 7.4-9.4 7.8-15.8v-5.7c3.8-.8.6-3.1.9-4.6.1-.7.1-1.3.2-2 .9-.1 2.1 3.1 2.5.2.2-1.8.6-4.4-1.3-6.1 2.1-3.2 2-6.7 1.9-10.4-.8-3.4 4.2-6 1.5-9.7h.5l.4-.2c2.8-2.1 6.1-3.9 6.8-7.8 4.1-3.1 1.5-7.4 2.1-11.2 0-5.8-.2-11.5 2.2-17 .4-1.1.7-2.2.9-3.3.8-.2.9-.6.1-1.2.1-.4.1-.7.1-1.1 1.4-1.6 2-3.5 1.1-5.7-.7-2.2-.6-4.8-2.2-6.7v-1.1c1.3 0 2.6.2 3.4-1.2 1.4-1.2 4.4-.5 4.5-3.3.4 0 .7 0 1.1-.1 2.2 0 2.6-1.9 3.3-3.3.8-2 1.8-4 2.7-6 .9-2 3.3-3.9.7-6.2-.4-.4-.7-.8-1.1-1.2 0-.7 0-1.5.1-2.2 1.8-.7 4.1-.5 4.6-3.2 1.1-.9 2.1-1.8 3.2-2.7 1.5-1.1 2.7-2.4 3.4-4.2.7-1.2 1.3-2.2 2-3.4 3.9-1.3 2.8-5.4 4.7-8 5.3-6.7 9.7-14 12.4-22.3 3.1-8.9 3.1-16.9-4.7-22.9zm-230 131.5h-.2c.1-.1.1-.1.2 0 0-.1 0-.1 0 0zm29.1 7.8l.7.4c-.3-.2-.6-.2-.7-.4zM284.9 79.8l.2-.2-.2.2zm-87.6 18.6c-.6.5-1.2 1.1-1.8 1.5-4.8 6.6-3.8 13.4-.2 20.1-1.8 3.3 4 2 2.9 4.6-1.4 3.4.8 2.7 2.7 3.8 5.3 2.8 7.5-.5 10-3.9v-1.1h1.1c5.3-1.2 4.1-5.5 4.5-9.1.4-1.4.7-2.9 1.1-4.4 0-.4.1-.7.2-1.1 1.4-2.9 2.6-5.8-1.4-7.8-1.6-2.6 1.5-5.3-.1-8h3.5c3.7.4 3.1-2.5 3.4-4.5v-5.7c-.4-1.1-.7-2.2-1.1-3.3.4-.4.7-.8 1.1-1.2 1.6 0 2.1-.9 2.4-2.5 1.1-5.8.1-12 4-17.1.2-.2-.5-1.3-.8-2-.1-.8-.1-1.6.8-2.1 2.7-.6 2.6-2.6 2.7-4.7.1-1.6 0-3.4.6-4.9 3.5-9.3.5-20.7-7.4-27.3-3.8-2.8-7.4-3.8-11.2 0-.4.4-.7.7-1.2 1.1-3.3-.2-3.7 3.1-5.5 4.6-3.8 8.6-4.9 17.5-4.7 26.9.1.1.2.1.4.2h-.3l-.4-.2c-2.9 4-1.8 8.4-.7 12.6l-.4 2.1c-2.9 1.2-1.9 4.2-1.5 5.5 1.5 5.3.1 10.1-1.5 15-.7 2-.4 3.1 1.2 4.1 1.1.1 2 .2 3.1.4 0 .6.1 1.1.1 1.6-3.3 1-3.7 4.6-5.6 6.8zM154.4 90c-1.6 3.4-3.8 6.7-2.8 11 .1 2.6.1 5.2.2 7.8-.2 1.4.9 2.8-.1 4.2.1 1.9.1 3.7.4 5.5 1.2 9.8 4.8 11.4 12.8 6v1.1c1.9 2.7 3.8 2.7 5.7 0 1.8-2.7 5.5-3.9 5.7-7.8 1.5-3.1 1.2-6 0-9.1-.2-3.1.9-6.2-1.2-9-.2-2.2 1.5-4.8-1.2-6.7-1.1-1.3-.9-2.9-1.1-4.6 2.5-2-1.1-4.5.5-6.6 2.1.2 2.5-.8 1.9-2.6l2.1-.7c1.5-2.5 2.5-5.2 2.2-8.1 0-1.9 2.5-4.4-1.2-5.5-.4-.4-.6-.8-.9-1.2 2.9-2.4 2.8-6.9-.1-10.1l1.1-2.5c1.9-4.6 2.5-9.4 2.5-14.4 1.4-6.4 3.4-12.7 1.2-19.3.6-2.8-1.4-4.5-2.7-6.5-.2-.4-.6-.8-.8-1.2-.4-3.4-3.2-4.2-5.5-5.4-3.3-3.2-6.7-1.5-10.1-.1-1.9 1.5-3.8 2.9-5.7 4.5-1.2.8-1.4 2-1.3 3.3-3.5 10.4-4.8 20.7-.7 31.3-.2 2.7 2.6 4.7 1.9 7.7-2.2 1.4-2.1 3.7-2.2 5.9-1.4 2.4-1.4 4.6.1 6.8v3.4c-1.9 1.6-1.1 3.8-.9 5.8 0 .7.1 1.4.1 2.1-.1 1.9-.2 3.7-.4 5.5-1.8 3.2 1.1 4.7 2.6 6.8l-2.1 2.7z"/></svg>